{
	"asset":{
		"generator":"Khronos glTF Blender I/O v3.6.27",
		"version":"2.0"
	},
	"scene":0,
	"scenes":[
		{
			"name":"Scene",
			"nodes":[
				0
			]
		}
	],
	"nodes":[
		{
			"mesh":0,
			"name":"Teapot"
		}
	],
	"materials":[
		{
			"doubleSided":true,
			"name":"Material.001",
			"pbrMetallicRoughness":{
				"baseColorFactor":[
					0.8000000715255737,
					0.0036272357683628798,
					0,
					1
				],
				"metallicFactor":0,
				"roughnessFactor":0.5
			}
		}
	],
	"meshes":[
		{
			"name":"Teapot",
			"primitives":[
				{
					"attributes":{
						"POSITION":0,
						"NORMAL":1,
						"TEXCOORD_0":2
					},
					"indices":3,
					"material":0
				}
			]
		}
	],
	"accessors":[
		{
			"bufferView":0,
			"componentType":5126,
			"count":8456,
			"max":[
				0.8229399919509888,
				0.39006564021110535,
				0.47928357124328613
			],
			"min":[
				-0.7189253568649292,
				-0.4000000059604645,
				-0.47928357124328613
			],
			"type":"VEC3"
		},
		{
			"bufferView":1,
			"componentType":5126,
			"count":8456,
			"type":"VEC3"
		},
		{
			"bufferView":2,
			"componentType":5126,
			"count":8456,
			"type":"VEC2"
		},
		{
			"bufferView":3,
			"componentType":5123,
			"count":47112,
			"type":"SCALAR"
		}
	],
	"bufferViews":[
		{
			"buffer":0,
			"byteLength":101472,
			"byteOffset":0,
			"target":34962
		},
		{
			"buffer":0,
			"byteLength":101472,
			"byteOffset":101472,
			"target":34962
		},
		{
			"buffer":0,
			"byteLength":67648,
			"byteOffset":202944,
			"target":34962
		},
		{
			"buffer":0,
			"byteLength":94224,
			"byteOffset":270592,
			"target":34963
		}
	],
	"buffers":[
		{
			"byteLength":364816,
			"uri":"data:application/octet-stream;base64,"
		}
	]
}
